<svg xmlns="http://www.w3.org/2000/svg" xmlns:xlink="http://www.w3.org/1999/xlink" width="500" zoomAndPan="magnify" viewBox="0 0 375 374.999991" height="500" preserveAspectRatio="xMidYMid meet" version="1.0"><defs><g/><clipPath id="1772c05e5b"><path d="M 43.109375 20.234375 L 337.851562 20.234375 L 337.851562 354.734375 L 43.109375 354.734375 Z M 43.109375 20.234375 " clip-rule="nonzero"/></clipPath></defs><g fill="#d3d3d3" fill-opacity="1"><g transform="translate(113.667744, 264.266553)"><g><path d="M 54.375 2.359375 C 46.195312 2.359375 38.691406 1.140625 31.859375 -1.296875 C 25.023438 -3.734375 19.265625 -7.050781 14.578125 -11.25 C 9.890625 -15.457031 6.457031 -20.113281 4.28125 -25.21875 L 14.296875 -38.390625 L 17.109375 -38.390625 C 20.410156 -31.335938 25.269531 -25.765625 31.6875 -21.671875 C 38.101562 -17.578125 45.664062 -15.53125 54.375 -15.53125 C 61.425781 -15.53125 67.164062 -16.675781 71.59375 -18.96875 C 76.03125 -21.257812 79.351562 -25.050781 81.5625 -30.34375 C 83.78125 -35.632812 84.890625 -42.78125 84.890625 -51.78125 L 84.890625 -164.59375 L 104.140625 -164.59375 L 104.140625 -51.453125 C 104.140625 -32.835938 99.988281 -19.210938 91.6875 -10.578125 C 83.394531 -1.953125 70.957031 2.359375 54.375 2.359375 Z M 54.375 2.359375 "/></g></g></g><g clip-path="url(#1772c05e5b)"><path fill="#d3d3d3" d="M 190.480469 32.40625 C 189.585938 32.40625 188.6875 32.640625 187.890625 33.097656 L 57.898438 108.054688 C 56.300781 108.976562 55.308594 110.691406 55.308594 112.535156 L 55.308594 262.441406 C 55.308594 264.285156 56.300781 266 57.898438 266.921875 L 187.890625 341.875 C 189.488281 342.796875 191.472656 342.796875 193.070312 341.875 L 323.0625 266.921875 C 324.660156 266 325.65625 264.285156 325.65625 262.441406 L 325.65625 112.535156 C 325.65625 110.691406 324.660156 108.976562 323.0625 108.054688 L 193.070312 33.097656 C 192.273438 32.640625 191.375 32.40625 190.480469 32.40625 Z M 190.480469 354.742188 C 187.476562 354.742188 184.472656 353.96875 181.792969 352.425781 L 51.800781 277.46875 C 46.441406 274.378906 43.109375 268.621094 43.109375 262.441406 L 43.109375 112.535156 C 43.109375 106.355469 46.441406 100.59375 51.800781 97.503906 L 181.792969 22.550781 C 187.152344 19.460938 193.808594 19.460938 199.167969 22.550781 L 329.160156 97.503906 C 334.519531 100.59375 337.851562 106.355469 337.851562 112.535156 L 337.851562 262.441406 C 337.851562 268.621094 334.519531 274.378906 329.160156 277.472656 L 199.167969 352.425781 C 196.488281 353.96875 193.484375 354.742188 190.480469 354.742188 " fill-opacity="1" fill-rule="nonzero"/></g></svg>